<svg width="96" height="96" viewBox="0 0 96 96" fill="none" xmlns="http://www.w3.org/2000/svg">
<rect width="96" height="96" fill="url(#paint0_linear)"/>
<g clip-path="url(#clip0)">
<path d="M70.3825 49.9487C70.3825 50.5112 70.3825 50.8468 70.3825 51.1768C70.3825 53.3968 70.3243 55.6149 70.3825 57.8331C70.4275 59.8206 69.7393 61.3487 67.9862 62.3687C64.6675 64.3018 61.3712 66.2706 58.0487 68.1906C55.5343 69.6418 52.975 71.0162 50.4625 72.4693C48.7918 73.4368 47.2037 73.4574 45.5106 72.4806C39.7467 69.1607 33.9686 65.8674 28.1761 62.6012C26.438 61.6262 25.6655 60.2968 25.688 58.2699C25.763 51.6793 25.7161 45.0849 25.718 38.4925C25.718 38.0856 25.7442 37.6806 25.7405 37.2737C25.7405 35.8637 26.3386 34.8531 27.5799 34.1462C31.0542 32.1681 34.5005 30.145 37.9617 28.1444C40.6374 26.5975 43.3337 25.0825 45.9925 23.5056C47.3687 22.6881 48.6887 22.66 50.0631 23.4531C56.0631 26.9162 62.0875 30.3512 68.0725 33.8444C70.0618 35.005 70.9712 37.6956 70.0431 39.8181C69.7243 40.5475 68.9631 41.1906 68.2525 41.6199C64.0243 44.1606 59.7606 46.6431 55.4893 49.1199C51.3756 51.4937 47.2506 53.8262 43.1387 56.1962C42.3887 56.6331 41.6875 57.1674 40.9486 57.6343C40.4217 57.9681 40.3861 58.2774 40.9374 58.5962C43.0924 59.8588 45.2473 61.1175 47.4025 62.3724C47.995 62.7193 48.5275 62.5449 49.0693 62.2262C55.8493 58.2962 62.6323 54.3731 69.4187 50.4568C69.6568 50.3199 69.9043 50.1999 70.3825 49.9487ZM35.2992 45.0099H35.2861C35.2861 46.1949 35.2861 47.3799 35.2861 48.5724C35.2861 49.2906 35.5186 49.4781 36.188 49.0881C42.3343 45.5207 48.4849 41.9582 54.64 38.4006C55.4687 37.9206 55.4931 37.6994 54.7543 37.2756C52.75 36.1375 50.7531 34.9806 48.7131 33.9006C48.4984 33.806 48.2661 33.7585 48.0317 33.7611C47.7971 33.7636 47.566 33.8163 47.3537 33.9156C43.5549 36.0756 39.7955 38.2956 36.0005 40.4612C35.7624 40.5713 35.5649 40.7535 35.4361 40.982C35.3072 41.2104 35.2534 41.4737 35.2824 41.7343C35.3217 42.8256 35.2992 43.9168 35.2992 45.0099Z" fill="white"/>
</g>
<defs>
<linearGradient id="paint0_linear" x1="92.5049" y1="-23.7851" x2="1.42972" y2="108.554" gradientUnits="userSpaceOnUse">
<stop offset="0.409949" stop-color="#FF9A44"/>
<stop offset="0.879014" stop-color="#FD2A48"/>
</linearGradient>
<clipPath id="clip0">
<rect width="50.625" height="50.625" fill="white" transform="translate(22.6875 22.6875)"/>
</clipPath>
</defs>
</svg>
