<svg width="16" height="16" viewBox="0 0 16 16" fill="none" xmlns="http://www.w3.org/2000/svg">
<rect width="16" height="16" fill="url(#paint0_linear)"/>
<g clip-path="url(#clip0)">
<path d="M11.7304 8.32478C11.7304 8.41853 11.7304 8.47447 11.7304 8.52947C11.7304 8.89947 11.7207 9.26916 11.7304 9.63884C11.7379 9.97009 11.6232 10.2248 11.331 10.3948C10.7779 10.717 10.2285 11.0451 9.67478 11.3651C9.25572 11.607 8.82916 11.836 8.41041 12.0782C8.13197 12.2395 7.86728 12.2429 7.5851 12.0801C6.62446 11.5268 5.66144 10.9779 4.69602 10.4335C4.40633 10.271 4.27758 10.0495 4.28133 9.71166C4.29383 8.61322 4.28602 7.51416 4.28633 6.41542C4.28633 6.3476 4.2907 6.2801 4.29008 6.21229C4.29008 5.97729 4.38977 5.80885 4.59664 5.69104C5.1757 5.36135 5.75008 5.02417 6.32696 4.69073C6.77289 4.43292 7.22228 4.18042 7.66541 3.9176C7.89478 3.78135 8.11478 3.77666 8.34385 3.90885C9.34385 4.48604 10.3479 5.05854 11.3454 5.64073C11.677 5.83417 11.8285 6.2826 11.6738 6.63635C11.6207 6.75792 11.4938 6.8651 11.3754 6.93666C10.6707 7.36009 9.9601 7.77384 9.24822 8.18666C8.5626 8.58228 7.8751 8.97103 7.18978 9.36603C7.06478 9.43884 6.94791 9.52791 6.82477 9.60572C6.73696 9.66134 6.73102 9.71291 6.8229 9.76603C7.18206 9.97647 7.54122 10.1863 7.90041 10.3954C7.99916 10.4532 8.08791 10.4242 8.17822 10.371C9.30822 9.71603 10.4387 9.06219 11.5698 8.40947C11.6095 8.38666 11.6507 8.36666 11.7304 8.32478ZM5.8832 7.50166H5.88102C5.88102 7.69916 5.88102 7.89666 5.88102 8.09541C5.88102 8.21509 5.91977 8.24634 6.03133 8.18134C7.05572 7.58678 8.08081 6.99303 9.10666 6.4001C9.24478 6.3201 9.24885 6.28323 9.12572 6.2126C8.79166 6.02292 8.45885 5.8301 8.11885 5.6501C8.08306 5.63434 8.04435 5.62641 8.00528 5.62684C7.96619 5.62727 7.92766 5.63606 7.89228 5.6526C7.25916 6.0126 6.63258 6.3826 6.00008 6.74354C5.9604 6.76189 5.92749 6.79225 5.90601 6.83033C5.88453 6.86841 5.87557 6.91228 5.88039 6.95572C5.88695 7.13759 5.8832 7.31947 5.8832 7.50166Z" fill="white"/>
</g>
<defs>
<linearGradient id="paint0_linear" x1="15.4175" y1="-3.96418" x2="0.238287" y2="18.0924" gradientUnits="userSpaceOnUse">
<stop offset="0.409949" stop-color="#FF9A44"/>
<stop offset="0.879014" stop-color="#FD2A48"/>
</linearGradient>
<clipPath id="clip0">
<rect width="8.4375" height="8.4375" fill="white" transform="translate(3.78125 3.78125)"/>
</clipPath>
</defs>
</svg>
