<svg width="36" height="36" viewBox="0 0 36 36" fill="none" xmlns="http://www.w3.org/2000/svg">
<mask id="mask0" mask-type="alpha" maskUnits="userSpaceOnUse" x="2" y="2" width="32" height="32">
<path d="M2.53125 9.5625C2.53125 5.67925 5.67925 2.53125 9.5625 2.53125H26.4375C30.3208 2.53125 33.4688 5.67925 33.4688 9.5625V26.4375C33.4688 30.3208 30.3208 33.4688 26.4375 33.4688H9.5625C5.67925 33.4688 2.53125 30.3208 2.53125 26.4375V9.5625Z" fill="white"/>
</mask>
<g mask="url(#mask0)">
<rect width="36" height="36" fill="#F7F7F7"/>
</g>
<g clip-path="url(#clip0)">
<path d="M26.3934 18.7308C26.3934 18.9417 26.3934 19.0676 26.3934 19.1913C26.3934 20.0238 26.3716 20.8556 26.3934 21.6874C26.4103 22.4327 26.1522 23.0058 25.4948 23.3883C24.2503 24.1132 23.0142 24.8515 21.7683 25.5715C20.8254 26.1157 19.8656 26.6311 18.9234 27.176C18.2969 27.5388 17.7014 27.5465 17.0665 27.1802C14.905 25.9353 12.7382 24.7003 10.566 23.4754C9.91424 23.1098 9.62455 22.6113 9.63299 21.8512C9.66112 19.3797 9.64354 16.9069 9.64424 14.4347C9.64424 14.2821 9.65409 14.1302 9.65268 13.9777C9.65268 13.4489 9.87698 13.0699 10.3424 12.8048C11.6453 12.063 12.9377 11.3044 14.2356 10.5541C15.239 9.97406 16.2501 9.40594 17.2472 8.8146C17.7633 8.50804 18.2583 8.4975 18.7737 8.79492C21.0237 10.0936 23.2828 11.3817 25.5272 12.6916C26.2732 13.1269 26.6142 14.1359 26.2662 14.9318C26.1466 15.2053 25.8612 15.4465 25.5947 15.6075C24.0091 16.5602 22.4102 17.4911 20.8085 18.42C19.2658 19.3101 17.719 20.1848 16.177 21.0736C15.8958 21.2374 15.6328 21.4378 15.3557 21.6129C15.1581 21.738 15.1448 21.854 15.3515 21.9736C16.1596 22.4471 16.9677 22.9191 17.7759 23.3897C17.9981 23.5197 18.1978 23.4544 18.401 23.3348C20.9435 21.8611 23.4871 20.3899 26.032 18.9213C26.1213 18.87 26.2141 18.825 26.3934 18.7308ZM13.2372 16.8787H13.2323C13.2323 17.3231 13.2323 17.7675 13.2323 18.2147C13.2323 18.484 13.3195 18.5543 13.5705 18.408C15.8754 17.0703 18.1818 15.7343 20.49 14.4002C20.8008 14.2202 20.8099 14.1373 20.5329 13.9784C19.7812 13.5516 19.0324 13.1177 18.2674 12.7127C18.1869 12.6773 18.0998 12.6594 18.0119 12.6604C17.9239 12.6614 17.8372 12.6811 17.7576 12.7184C16.3331 13.5284 14.9233 14.3609 13.5002 15.173C13.4109 15.2142 13.3369 15.2826 13.2885 15.3682C13.2402 15.4539 13.22 15.5526 13.2309 15.6504C13.2456 16.0596 13.2372 16.4688 13.2372 16.8787Z" fill="#A7AFBA"/>
</g>
<defs>
<clipPath id="clip0">
<rect width="18.9844" height="18.9844" fill="white" transform="translate(8.50781 8.50781)"/>
</clipPath>
</defs>
</svg>
