<svg width="128" height="128" viewBox="0 0 128 128" fill="none" xmlns="http://www.w3.org/2000/svg">
<mask id="mask0" mask-type="alpha" maskUnits="userSpaceOnUse" x="9" y="9" width="110" height="110">
<path d="M9 34C9 20.1929 20.1929 9 34 9H94C107.807 9 119 20.1929 119 34V94C119 107.807 107.807 119 94 119H34C20.1929 119 9 107.807 9 94V34Z" fill="white"/>
</mask>
<g mask="url(#mask0)">
<rect width="128" height="128" fill="#F7F7F7"/>
</g>
<g clip-path="url(#clip0)">
<path d="M93.8433 66.5983C93.8433 67.3483 93.8433 67.7957 93.8433 68.2357C93.8433 71.1957 93.7658 74.1532 93.8433 77.1107C93.9033 79.7607 92.9858 81.7982 90.6483 83.1582C86.2233 85.7357 81.8283 88.3607 77.3983 90.9207C74.0458 92.8558 70.6333 94.6882 67.2833 96.6257C65.0558 97.9157 62.9383 97.9432 60.6808 96.6407C52.9956 92.2142 45.2915 87.8232 37.5681 83.4683C35.2506 82.1683 34.2206 80.3957 34.2506 77.6932C34.3506 68.9057 34.2881 60.1132 34.2906 51.3233C34.2906 50.7808 34.3256 50.2408 34.3206 49.6983C34.3206 47.8183 35.1181 46.4708 36.7731 45.5283C41.4056 42.8908 46.0006 40.1933 50.6156 37.5258C54.1831 35.4633 57.7783 33.4433 61.3233 31.3408C63.1583 30.2508 64.9183 30.2133 66.7508 31.2708C74.7508 35.8883 82.7833 40.4683 90.7633 45.1258C93.4158 46.6733 94.6283 50.2608 93.3908 53.0908C92.9658 54.0633 91.9508 54.9208 91.0033 55.4932C85.3658 58.8808 79.6808 62.1908 73.9858 65.4933C68.5008 68.6583 63.0008 71.7682 57.5183 74.9282C56.5183 75.5107 55.5833 76.2232 54.5981 76.8457C53.8956 77.2907 53.8481 77.7033 54.5832 78.1283C57.4565 79.8117 60.3298 81.49 63.2033 83.1632C63.9933 83.6258 64.7033 83.3932 65.4258 82.9683C74.4658 77.7282 83.5098 72.4975 92.5583 67.2757C92.8758 67.0933 93.2058 66.9333 93.8433 66.5983ZM47.0656 60.0133H47.0481C47.0481 61.5933 47.0481 63.1732 47.0481 64.7632C47.0481 65.7207 47.3581 65.9707 48.2506 65.4507C56.4458 60.6942 64.6465 55.9443 72.8533 51.2008C73.9583 50.5608 73.9908 50.2658 73.0058 49.7008C70.3333 48.1833 67.6708 46.6408 64.9508 45.2008C64.6645 45.0747 64.3548 45.0113 64.0423 45.0147C63.7295 45.0182 63.4213 45.0885 63.1383 45.2208C58.0733 48.1008 53.0606 51.0608 48.0006 53.9483C47.6832 54.0951 47.4199 54.338 47.2481 54.6426C47.0763 54.9473 47.0046 55.2983 47.0431 55.6458C47.0956 57.1007 47.0656 58.5557 47.0656 60.0133Z" fill="#A7AFBA"/>
</g>
<defs>
<clipPath id="clip0">
<rect width="67.5" height="67.5" fill="white" transform="translate(30.25 30.25)"/>
</clipPath>
</defs>
</svg>
