<svg width="48" height="48" viewBox="0 0 48 48" fill="none" xmlns="http://www.w3.org/2000/svg">
<mask id="mask0" mask-type="alpha" maskUnits="userSpaceOnUse" x="0" y="0" width="48" height="48">
<rect width="48" height="48" fill="#C4C4C4"/>
</mask>
<g mask="url(#mask0)">
<rect width="48" height="48" fill="#F7F7F7"/>
</g>
<g clip-path="url(#clip0)">
<path d="M35.1912 24.9743C35.1912 25.2556 35.1912 25.4234 35.1912 25.5884C35.1912 26.6984 35.1622 27.8075 35.1912 28.9165C35.2137 29.9103 34.8697 30.6743 33.9931 31.1843C32.3337 32.1509 30.6856 33.1353 29.0244 34.0953C27.7672 34.8209 26.4875 35.5081 25.2312 36.2347C24.3959 36.7184 23.6018 36.7287 22.7553 36.2403C19.8734 34.5803 16.9843 32.9337 14.0881 31.3006C13.219 30.8131 12.8327 30.1484 12.844 29.135C12.8815 25.8397 12.8581 22.5425 12.859 19.2462C12.859 19.0428 12.8721 18.8403 12.8702 18.6369C12.8702 17.9319 13.1693 17.4266 13.7899 17.0731C15.5271 16.0841 17.2502 15.0725 18.9809 14.0722C20.3187 13.2987 21.6668 12.5412 22.9962 11.7528C23.6844 11.3441 24.3444 11.33 25.0315 11.7266C28.0315 13.4581 31.0437 15.1756 34.0362 16.9222C35.0309 17.5025 35.4856 18.8478 35.0215 19.9091C34.8622 20.2737 34.4815 20.5953 34.1262 20.81C32.0122 22.0803 29.8803 23.3215 27.7447 24.56C25.6878 25.7468 23.6253 26.9131 21.5693 28.0981C21.1943 28.3165 20.8437 28.5837 20.4743 28.8172C20.2109 28.984 20.1931 29.1387 20.4687 29.2981C21.5462 29.9294 22.6237 30.5588 23.7012 31.1862C23.9975 31.3597 24.2637 31.2725 24.5347 31.1131C27.9247 29.1481 31.3162 27.1866 34.7094 25.2284C34.8284 25.16 34.9522 25.1 35.1912 24.9743ZM17.6496 22.505H17.6431C17.6431 23.0975 17.6431 23.69 17.6431 24.2862C17.6431 24.6453 17.7593 24.739 18.094 24.544C21.1672 22.7603 24.2424 20.9791 27.32 19.2003C27.7344 18.9603 27.7465 18.8497 27.3772 18.6378C26.375 18.0687 25.3765 17.4903 24.3565 16.9503C24.2492 16.903 24.133 16.8792 24.0159 16.8805C23.8986 16.8818 23.783 16.9082 23.6768 16.9578C21.7775 18.0378 19.8977 19.1478 18.0002 20.2306C17.8812 20.2857 17.7825 20.3767 17.718 20.491C17.6536 20.6052 17.6267 20.7368 17.6412 20.8672C17.6609 21.4128 17.6496 21.9584 17.6496 22.505Z" fill="#A7AFBA"/>
</g>
<defs>
<clipPath id="clip0">
<rect width="25.3125" height="25.3125" fill="white" transform="translate(11.3438 11.3438)"/>
</clipPath>
</defs>
</svg>
