<svg width="270" height="270" viewBox="0 0 270 270" fill="none" xmlns="http://www.w3.org/2000/svg">
    <path d="M254.373 145.393C254.373 148.393 254.373 150.183 254.373 151.943C254.373 163.783 254.063 175.613 254.373 187.443C254.613 198.043 250.943 206.193 241.593 211.633C223.893 221.943 206.313 232.443 188.593 242.683C175.183 250.423 161.533 257.753 148.133 265.503C139.223 270.663 130.753 270.773 121.723 265.563C90.9825 247.857 60.1659 230.293 29.2725 212.873C20.0025 207.673 15.8825 200.583 16.0025 189.773C16.4025 154.623 16.1525 119.453 16.1625 84.2933C16.1625 82.1233 16.3025 79.9633 16.2825 77.7933C16.2825 70.2733 19.4725 64.8833 26.0925 61.1133C44.6225 50.5633 63.0025 39.7733 81.4625 29.1033C95.7325 20.8533 110.113 12.7733 124.293 4.36327C131.633 0.00326753 138.673 -0.146732 146.003 4.08327C178.003 22.5533 210.133 40.8733 242.053 59.5033C252.663 65.6933 257.513 80.0433 252.563 91.3633C250.863 95.2533 246.803 98.6833 243.013 100.973C220.463 114.523 197.723 127.763 174.943 140.973C153.003 153.633 131.003 166.073 109.073 178.713C105.073 181.043 101.333 183.893 97.3925 186.383C94.5825 188.163 94.3925 189.813 97.3326 191.513C108.826 198.247 120.319 204.96 131.813 211.653C134.973 213.503 137.813 212.573 140.703 210.873C176.863 189.913 213.039 168.99 249.233 148.103C250.503 147.373 251.823 146.733 254.373 145.393ZM67.2625 119.053H67.1925C67.1925 125.373 67.1925 131.693 67.1925 138.053C67.1925 141.883 68.4325 142.883 72.0025 140.803C104.783 121.777 137.586 102.777 170.413 83.8033C174.833 81.2433 174.963 80.0633 171.023 77.8033C160.333 71.7333 149.683 65.5633 138.803 59.8033C137.658 59.2989 136.419 59.0452 135.169 59.059C133.918 59.0728 132.685 59.3538 131.553 59.8833C111.293 71.4033 91.2425 83.2433 71.0025 94.7933C69.7327 95.3804 68.6796 96.352 67.9923 97.5705C67.305 98.789 67.0182 100.193 67.1725 101.583C67.3825 107.403 67.2625 113.223 67.2625 119.053Z"
          fill="white"/>
</svg>
