<svg width="128" height="24" viewBox="0 0 128 24" fill="none" xmlns="http://www.w3.org/2000/svg">
    <path d="M16 0H8C3.58172 0 0 3.58172 0 8V16C0 20.4183 3.58172 24 8 24H16C20.4183 24 24 20.4183 24 16V8C24 3.58172 20.4183 0 16 0Z"
          fill="url(#paint0_linear_1649_6596)"/>
    <path d="M17.5956 12.4872C17.5956 12.6278 17.5956 12.7117 17.5956 12.7942C17.5956 13.3492 17.5811 13.9038 17.5956 14.4583C17.6069 14.9552 17.4349 15.3372 16.9966 15.5922C16.1669 16.0755 15.3428 16.5677 14.5122 17.0477C13.8836 17.4105 13.2438 17.7541 12.6156 18.1173C12.198 18.3592 11.8009 18.3644 11.3777 18.1202C9.93673 17.2902 8.49218 16.4669 7.04403 15.6503C6.60949 15.4066 6.41637 15.0742 6.42199 14.5675C6.44074 12.9198 6.42903 11.2712 6.42949 9.62312C6.42949 9.5214 6.43606 9.42015 6.43512 9.31844C6.43512 8.96594 6.58465 8.71328 6.89496 8.53656C7.76356 8.04203 8.62512 7.53625 9.49048 7.03609C10.1594 6.64937 10.8334 6.27062 11.4981 5.8764C11.8422 5.67203 12.1722 5.665 12.5158 5.86328C14.0158 6.72906 15.5219 7.58781 17.0181 8.46109C17.5155 8.75125 17.7428 9.4239 17.5108 9.95453C17.4311 10.1369 17.2408 10.2977 17.0631 10.405C16.0061 11.0402 14.9402 11.6608 13.8724 12.28C12.8439 12.8734 11.8127 13.4566 10.7847 14.0491C10.5972 14.1583 10.4219 14.2919 10.2372 14.4086C10.1055 14.492 10.0966 14.5694 10.2344 14.6491C10.7731 14.9647 11.3119 15.2794 11.8506 15.5931C11.9988 15.6798 12.1319 15.6363 12.2674 15.5566C13.9624 14.5741 15.6581 13.5933 17.3547 12.6142C17.4142 12.58 17.4761 12.55 17.5956 12.4872ZM8.82481 11.2525H8.82153C8.82153 11.5487 8.82153 11.845 8.82153 12.1431C8.82153 12.3227 8.87965 12.3695 9.04704 12.272C10.5836 11.3802 12.1212 10.4896 13.66 9.60015C13.8672 9.48015 13.8733 9.42484 13.6886 9.3189C13.1875 9.03437 12.6883 8.74515 12.1783 8.47515C12.1246 8.45153 12.0665 8.43962 12.0079 8.44028C11.9493 8.44094 11.8915 8.45411 11.8384 8.4789C10.8888 9.0189 9.94892 9.5739 9.00017 10.1153C8.94063 10.1428 8.89128 10.1884 8.85903 10.2455C8.82682 10.3026 8.81337 10.3684 8.82059 10.4336C8.83043 10.7064 8.82481 10.9792 8.82481 11.2525Z"
          fill="white"/>
    <path d="M46.49 11.8238C46.49 8.46713 43.8995 5.91608 40.245 5.91608C36.5905 5.91608 34 8.44476 34 11.958C34 15.4713 36.5905 18 40.245 18C42.743 18 45.1022 16.8587 46.0043 14.6434L43.5063 14.2406C42.928 15.0685 41.8178 15.6503 40.4069 15.6503C38.3715 15.6503 37.03 14.442 36.7755 12.6517H46.4437C46.4669 12.4056 46.49 12.1371 46.49 11.8238ZM40.245 8.15385C41.9103 8.15385 43.1593 9.18322 43.5988 10.6378H36.9375C37.3769 9.13846 38.6259 8.15385 40.245 8.15385Z"
          fill="black"/>
    <path d="M49.9096 17.7762L52.662 13.3678H53.1014L55.6688 17.7762H58.7682L54.9518 11.6671L58.3287 6.13986H55.3913L53.0321 10.0559H52.5926L50.349 6.13986H47.3422L50.7191 11.8238L46.9027 17.7762H49.9096Z"
          fill="black"/>
    <path d="M65.6151 18C69.3852 18 72.0451 15.4937 72.0451 11.958C72.0451 8.42238 69.3852 5.91608 65.6151 5.91608C61.845 5.91608 59.1851 8.42238 59.1851 11.958C59.1851 15.4937 61.845 18 65.6151 18ZM65.6151 15.6503C63.4409 15.6503 61.9606 14.151 61.9606 11.958C61.9606 9.76504 63.4409 8.26573 65.6151 8.26573C67.7893 8.26573 69.2696 9.76504 69.2696 11.958C69.2696 14.151 67.7893 15.6503 65.6151 15.6503Z"
          fill="black"/>
    <path d="M79.5386 18C81.7359 18 83.2625 16.8811 84.0951 15.8965L84.6502 17.7762H86.6394V2H83.9795V7.90769C83.1468 6.94545 81.6434 5.91608 79.5386 5.91608C76.0923 5.91608 73.6637 8.44476 73.6637 11.958C73.6637 15.4713 76.0923 18 79.5386 18ZM80.1862 15.6951C77.9658 15.6951 76.4392 14.151 76.4392 11.958C76.4392 9.76504 77.9658 8.22098 80.1862 8.22098C82.4298 8.22098 83.9795 9.76504 83.9795 11.958C83.9795 14.151 82.4298 15.6951 80.1862 15.6951Z"
          fill="black"/>
    <path d="M101.558 11.8238C101.558 8.46713 98.9678 5.91608 95.3133 5.91608C91.6589 5.91608 89.0684 8.44476 89.0684 11.958C89.0684 15.4713 91.6589 18 95.3133 18C97.8113 18 100.171 16.8587 101.073 14.6434L98.5746 14.2406C97.9964 15.0685 96.8862 15.6503 95.4753 15.6503C93.4398 15.6503 92.0983 14.442 91.8439 12.6517H101.512C101.535 12.4056 101.558 12.1371 101.558 11.8238ZM95.3133 8.15385C96.9787 8.15385 98.2277 9.18322 98.6671 10.6378H92.0058C92.4453 9.13846 93.6943 8.15385 95.3133 8.15385Z"
          fill="black"/>
    <path d="M104.573 18C105.498 18 106.215 17.3063 106.215 16.4336C106.215 15.5385 105.498 14.8448 104.573 14.8448C103.625 14.8448 102.931 15.5385 102.931 16.4336C102.931 17.3063 103.625 18 104.573 18Z"
          fill="black"/>
    <path d="M111.893 17.7762V10.9063C111.893 9.42937 112.633 8.6014 114.252 8.6014H115.778L115.547 6.13986H115.038C113.627 6.13986 112.54 6.52028 111.731 7.81818L111.222 6.13986H109.233V17.7762H111.893Z"
          fill="black"/>
    <path d="M121.917 18C123.374 18 124.716 17.2615 125.479 16.0308L126.011 17.7762H128V6.13986H125.34V12.8755C125.34 14.5315 124.207 15.6951 122.657 15.6951C121.131 15.6951 120.067 14.5315 120.067 12.8755V6.13986H117.407V13.1664C117.407 15.9636 119.35 18 121.917 18Z"
          fill="black"/>
    <defs>
        <linearGradient id="paint0_linear_1649_6596" x1="23.1262" y1="-5.94628" x2="0.357431" y2="27.1386"
                        gradientUnits="userSpaceOnUse">
            <stop offset="0.409949" stop-color="#FF9A44"/>
            <stop offset="0.879014" stop-color="#FD2A48"/>
        </linearGradient>
    </defs>
</svg>
