<svg width="94" height="16" viewBox="0 0 94 16" fill="none" xmlns="http://www.w3.org/2000/svg">
<path d="M12.49 9.82378C12.49 6.46713 9.89947 3.91608 6.245 3.91608C2.59052 3.91608 0 6.44476 0 9.95804C0 13.4713 2.59052 16 6.245 16C8.74299 16 11.1022 14.8587 12.0043 12.6434L9.50627 12.2406C8.92803 13.0685 7.81781 13.6503 6.4069 13.6503C4.3715 13.6503 3.02998 12.442 2.77555 10.6517H12.4437C12.4669 10.4056 12.49 10.1371 12.49 9.82378ZM6.245 6.15385C7.91033 6.15385 9.15933 7.18322 9.59879 8.63776H2.93746C3.37692 7.13846 4.62592 6.15385 6.245 6.15385Z" fill="black"/>
<path d="M15.9096 15.7762L18.662 11.3678H19.1014L21.6688 15.7762H24.7682L20.9518 9.66713L24.3287 4.13986H21.3913L19.0321 8.05594H18.5926L16.349 4.13986H13.3422L16.7191 9.82378L12.9027 15.7762H15.9096Z" fill="black"/>
<path d="M31.6151 16C35.3852 16 38.0451 13.4937 38.0451 9.95804C38.0451 6.42238 35.3852 3.91608 31.6151 3.91608C27.845 3.91608 25.1851 6.42238 25.1851 9.95804C25.1851 13.4937 27.845 16 31.6151 16ZM31.6151 13.6503C29.4409 13.6503 27.9606 12.151 27.9606 9.95804C27.9606 7.76504 29.4409 6.26573 31.6151 6.26573C33.7893 6.26573 35.2696 7.76504 35.2696 9.95804C35.2696 12.151 33.7893 13.6503 31.6151 13.6503Z" fill="black"/>
<path d="M45.5386 16C47.7359 16 49.2625 14.8811 50.0951 13.8965L50.6502 15.7762H52.6394V0H49.9795V5.90769C49.1468 4.94545 47.6434 3.91608 45.5386 3.91608C42.0923 3.91608 39.6637 6.44476 39.6637 9.95804C39.6637 13.4713 42.0923 16 45.5386 16ZM46.1862 13.6951C43.9658 13.6951 42.4392 12.151 42.4392 9.95804C42.4392 7.76504 43.9658 6.22098 46.1862 6.22098C48.4298 6.22098 49.9795 7.76504 49.9795 9.95804C49.9795 12.151 48.4298 13.6951 46.1862 13.6951Z" fill="black"/>
<path d="M67.5583 9.82378C67.5583 6.46713 64.9678 3.91608 61.3133 3.91608C57.6589 3.91608 55.0684 6.44476 55.0684 9.95804C55.0684 13.4713 57.6589 16 61.3133 16C63.8113 16 66.1706 14.8587 67.0726 12.6434L64.5746 12.2406C63.9964 13.0685 62.8862 13.6503 61.4753 13.6503C59.4398 13.6503 58.0983 12.442 57.8439 10.6517H67.5121C67.5352 10.4056 67.5583 10.1371 67.5583 9.82378ZM61.3133 6.15385C62.9787 6.15385 64.2277 7.18322 64.6671 8.63776H58.0058C58.4453 7.13846 59.6943 6.15385 61.3133 6.15385Z" fill="black"/>
<path d="M70.573 16C71.4981 16 72.2152 15.3063 72.2152 14.4336C72.2152 13.5385 71.4981 12.8448 70.573 12.8448C69.6246 12.8448 68.9308 13.5385 68.9308 14.4336C68.9308 15.3063 69.6246 16 70.573 16Z" fill="black"/>
<path d="M77.8926 15.7762V8.90629C77.8926 7.42937 78.6327 6.6014 80.2518 6.6014H81.7784L81.5471 4.13986H81.0382C79.6273 4.13986 78.5402 4.52028 77.7307 5.81818L77.2218 4.13986H75.2327V15.7762H77.8926Z" fill="black"/>
<path d="M87.9169 16C89.3741 16 90.7156 15.2615 91.4789 14.0308L92.0109 15.7762H94V4.13986H91.3401V10.8755C91.3401 12.5315 90.2067 13.6951 88.6571 13.6951C87.1305 13.6951 86.0665 12.5315 86.0665 10.8755V4.13986H83.4066V11.1664C83.4066 13.9636 85.3495 16 87.9169 16Z" fill="black"/>
</svg>
