<svg width="256" height="256" viewBox="0 0 256 256" fill="none" xmlns="http://www.w3.org/2000/svg">
<g clip-path="url(#clip0)">
<path d="M18 68C18 40.3858 40.3858 18 68 18H188C215.614 18 238 40.3858 238 68V188C238 215.614 215.614 238 188 238H68C40.3858 238 18 215.614 18 188V68Z" fill="url(#paint0_linear)"/>
<g clip-path="url(#clip1)">
<path d="M187.687 133.197C187.687 134.697 187.687 135.591 187.687 136.471C187.687 142.391 187.532 148.306 187.687 154.221C187.807 159.521 185.972 163.596 181.297 166.316C172.447 171.471 163.657 176.721 154.797 181.841C148.092 185.711 141.267 189.376 134.567 193.251C130.112 195.831 125.877 195.886 121.362 193.281C105.991 184.428 90.583 175.647 75.1363 166.937C70.5013 164.337 68.4413 160.791 68.5013 155.386C68.7013 137.811 68.5763 120.226 68.5813 102.647C68.5813 101.562 68.6513 100.482 68.6413 99.3966C68.6413 95.6366 70.2363 92.9417 73.5463 91.0567C82.8113 85.7817 92.0013 80.3867 101.231 75.0517C108.366 70.9267 115.557 66.8866 122.647 62.6816C126.317 60.5016 129.837 60.4266 133.502 62.5416C149.502 71.7766 165.567 80.9367 181.527 90.2516C186.832 93.3466 189.257 100.522 186.782 106.182C185.932 108.127 183.902 109.842 182.007 110.986C170.732 117.761 159.362 124.382 147.972 130.987C137.002 137.317 126.002 143.536 115.037 149.856C113.037 151.021 111.167 152.446 109.196 153.691C107.791 154.581 107.696 155.407 109.166 156.257C114.913 159.624 120.66 162.98 126.407 166.326C127.987 167.251 129.407 166.787 130.852 165.937C148.932 155.457 167.02 144.995 185.117 134.551C185.752 134.186 186.412 133.867 187.687 133.197ZM94.1313 120.027H94.0963C94.0963 123.187 94.0963 126.346 94.0963 129.526C94.0963 131.441 94.7163 131.941 96.5013 130.901C112.892 121.388 129.293 111.888 145.707 102.402C147.917 101.122 147.982 100.532 146.012 99.4016C140.667 96.3666 135.342 93.2816 129.902 90.4016C129.329 90.1494 128.71 90.0226 128.085 90.0295C127.459 90.0364 126.843 90.1769 126.277 90.4417C116.147 96.2017 106.121 102.122 96.0013 107.897C95.3664 108.19 94.8398 108.676 94.4962 109.285C94.1525 109.895 94.0091 110.597 94.0863 111.292C94.1913 114.202 94.1313 117.112 94.1313 120.027Z" fill="white"/>
</g>
</g>
<defs>
<linearGradient id="paint0_linear" x1="229.99" y1="-36.5075" x2="21.2764" y2="266.77" gradientUnits="userSpaceOnUse">
<stop offset="0.409949" stop-color="#FF9A44"/>
<stop offset="0.879014" stop-color="#FD2A48"/>
</linearGradient>
<clipPath id="clip0">
<rect width="256" height="256" fill="white"/>
</clipPath>
<clipPath id="clip1">
<rect width="135" height="135" fill="white" transform="translate(60.5 60.5)"/>
</clipPath>
</defs>
</svg>
