<svg width="72" height="72" viewBox="0 0 72 72" fill="none" xmlns="http://www.w3.org/2000/svg">
<g clip-path="url(#clip0)">
<path d="M5.0625 19.125C5.0625 11.3585 11.3585 5.0625 19.125 5.0625H52.875C60.6415 5.0625 66.9375 11.3585 66.9375 19.125V52.875C66.9375 60.6415 60.6415 66.9375 52.875 66.9375H19.125C11.3585 66.9375 5.0625 60.6415 5.0625 52.875V19.125Z" fill="url(#paint0_linear)"/>
<g clip-path="url(#clip1)">
<path d="M52.7868 37.4615C52.7868 37.8834 52.7868 38.1351 52.7868 38.3826C52.7868 40.0476 52.7432 41.7112 52.7868 43.3748C52.8206 44.8654 52.3045 46.0115 50.9897 46.7765C48.5006 48.2264 46.0284 49.7029 43.5365 51.1429C41.6507 52.2314 39.7312 53.2621 37.8468 54.352C36.5939 55.0776 35.4028 55.0931 34.1329 54.3604C29.81 51.8705 25.4765 49.4006 21.1321 46.9509C19.8285 46.2196 19.2491 45.2226 19.266 43.7025C19.3222 38.7595 19.2871 33.8137 19.2885 28.8694C19.2885 28.5642 19.3082 28.2605 19.3054 27.9553C19.3054 26.8978 19.754 26.1398 20.6849 25.6097C23.2907 24.1261 25.8754 22.6087 28.4713 21.1083C30.478 19.9481 32.5003 18.8119 34.4943 17.6292C35.5265 17.0161 36.5165 16.995 37.5473 17.5898C42.0473 20.1872 46.5656 22.7634 51.0543 25.3833C52.5464 26.2537 53.2284 28.2717 52.5323 29.8636C52.2932 30.4106 51.7223 30.893 51.1893 31.215C48.0182 33.1204 44.8204 34.9823 41.617 36.84C38.5317 38.6203 35.4379 40.3696 32.354 42.1471C31.7915 42.4748 31.2656 42.8756 30.7115 43.2257C30.3163 43.476 30.2896 43.7081 30.703 43.9471C32.3193 44.8941 33.9355 45.8381 35.5518 46.7793C35.9962 47.0395 36.3956 46.9087 36.802 46.6696C41.887 43.7221 46.9742 40.7798 52.064 37.8426C52.2426 37.74 52.4282 37.65 52.7868 37.4615ZM26.4744 33.7575H26.4646C26.4646 34.6462 26.4646 35.535 26.4646 36.4293C26.4646 36.9679 26.639 37.1085 27.141 36.816C31.7507 34.1405 36.3637 31.4686 40.98 28.8005C41.6015 28.4405 41.6198 28.2745 41.0657 27.9567C39.5625 27.1031 38.0648 26.2355 36.5348 25.4255C36.3738 25.3545 36.1996 25.3189 36.0238 25.3208C35.8479 25.3227 35.6745 25.3623 35.5153 25.4367C32.6662 27.0567 29.8466 28.7217 27.0004 30.3459C26.8218 30.4285 26.6737 30.5651 26.577 30.7365C26.4804 30.9078 26.4401 31.1053 26.4618 31.3007C26.4913 32.1192 26.4744 32.9376 26.4744 33.7575Z" fill="white"/>
</g>
</g>
<defs>
<linearGradient id="paint0_linear" x1="64.6848" y1="-10.2677" x2="5.984" y2="75.0291" gradientUnits="userSpaceOnUse">
<stop offset="0.409949" stop-color="#FF9A44"/>
<stop offset="0.879014" stop-color="#FD2A48"/>
</linearGradient>
<clipPath id="clip0">
<rect width="72" height="72" fill="white"/>
</clipPath>
<clipPath id="clip1">
<rect width="37.9688" height="37.9688" fill="white" transform="translate(17.0156 17.0156)"/>
</clipPath>
</defs>
</svg>
